<svg width="24" height="24" viewBox="0 0 24 24" fill="none" xmlns="http://www.w3.org/2000/svg">
<path d="M13.499 13.4805C13.361 13.4815 13.25 13.5935 13.25 13.7315C13.25 13.8695 13.362 13.9815 13.5 13.9805C13.638 13.9805 13.75 13.8685 13.75 13.7305C13.75 13.5925 13.638 13.4805 13.499 13.4805" stroke="#262829" stroke-width="1.5" stroke-linecap="round" stroke-linejoin="round"/>
<path d="M3 6.283V6C3 4.343 4.343 3 6 3H18C19.657 3 21 4.343 21 6V15C21 16.657 19.657 18 18 18H17" stroke="#262829" stroke-width="1.5" stroke-linecap="round" stroke-linejoin="round"/>
<path d="M21 9H17" stroke="#262829" stroke-width="1.5" stroke-linecap="round" stroke-linejoin="round"/>
<path fill-rule="evenodd" clip-rule="evenodd" d="M13.325 20.9216C15.205 21.3556 17 19.9276 17 17.9986V9.38656C17 7.98956 16.036 6.77756 14.675 6.46356L5.45 4.33456C4.196 4.04456 3 4.99656 3 6.28256V16.1516C3 17.5486 3.964 18.7606 5.325 19.0746L13.325 20.9216V20.9216Z" stroke="#262829" stroke-width="1.5" stroke-linecap="round" stroke-linejoin="round"/>
</svg>
